<svg xmlns="http://www.w3.org/2000/svg" xmlns:xlink="http://www.w3.org/1999/xlink" viewBox="0 0 800 700"><defs><linearGradient id="e" x1="286.89" x2="284.04" y1="597.49" y2="616.74" gradientUnits="userSpaceOnUse"><stop offset="0" stop-color="#df7db2"/><stop offset="1" stop-color="#635ca8"/></linearGradient><linearGradient id="a" x1="3918.55" x2="3915.32" y1="699.04" y2="710.36" gradientTransform="rotate(-2.77 -70.953 75853.52)" gradientUnits="userSpaceOnUse"><stop offset="0" stop-color="#ef877e"/><stop offset="1" stop-color="#fabeb2"/></linearGradient><linearGradient id="c" x1="283.42" x2="295.56" y1="396.44" y2="427.79" gradientUnits="userSpaceOnUse"><stop offset="0" stop-color="#635ca8"/><stop offset="1" stop-color="#df7db2"/></linearGradient><linearGradient id="d" x1="324.17" x2="290.78" y1="326.81" y2="389.04" gradientTransform="rotate(-8.49 52.717 623)" gradientUnits="userSpaceOnUse"><stop offset="0" stop-color="#8a5ba6"/><stop offset="1" stop-color="#141845"/></linearGradient><linearGradient id="f" x1="263.46" x2="264.24" y1="351.66" y2="366.7" xlink:href="#a"/><linearGradient id="g" x1="63.4" x2="67.05" y1="609.98" y2="643.86" gradientTransform="matrix(.92 -.25 .25 .82 41.57 -160.25)" xlink:href="#a"/><linearGradient id="b" x1="273.96" x2="274.66" y1="612.87" y2="421.66" gradientUnits="userSpaceOnUse"><stop offset="0" stop-color="#543e98"/><stop offset="1" stop-color="#1d0d45"/></linearGradient><linearGradient id="h" x1="4018.01" x2="4018.59" y1="826.57" y2="833.37" gradientTransform="scale(-1 1) rotate(-7 78.595 36090.413)" xlink:href="#a"/><linearGradient id="i" x1="271.59" x2="272.28" y1="612.86" y2="421.65" xlink:href="#b"/><linearGradient id="j" x1="253.55" x2="254.25" y1="612.79" y2="421.58" xlink:href="#b"/><linearGradient id="k" x1="258.03" x2="263.96" y1="443.06" y2="380.92" xlink:href="#c"/><linearGradient id="l" x1="275.27" x2="285.51" y1="441.64" y2="361.19" xlink:href="#c"/><linearGradient id="m" x1="274.42" x2="284.69" y1="441.68" y2="360.94" xlink:href="#c"/><linearGradient id="n" x1="319.64" x2="286.14" y1="324.17" y2="386.61" xlink:href="#d"/><linearGradient id="o" x1="265.65" x2="259.13" y1="352.85" y2="452.54" xlink:href="#e"/><linearGradient id="p" x1="276.7" x2="297.46" y1="401.04" y2="447.61" gradientUnits="userSpaceOnUse"><stop offset="0" stop-color="#5cba47"/><stop offset="1" stop-color="#f15922"/></linearGradient><linearGradient id="q" x1="430.29" x2="424.74" y1="400.55" y2="442.27" gradientTransform="matrix(-1 0 0 1 708.44 0)" gradientUnits="userSpaceOnUse"><stop offset="0" stop-color="#fec15f"/><stop offset="1" stop-color="#f15922"/></linearGradient><linearGradient id="r" x1="3674.17" x2="3668.59" y1="1601.03" y2="1617.46" gradientTransform="matrix(-.08 1 1 .08 -1039.7 -3374.86)" xlink:href="#a"/><linearGradient id="s" x1="3678.43" x2="3678.54" y1="1610.36" y2="1610.28" gradientTransform="matrix(-.08 1 1 .08 -1039.7 -3374.86)" xlink:href="#a"/><linearGradient id="t" x1="3677.89" x2="3678.65" y1="1610.69" y2="1610.22" gradientTransform="matrix(-.08 1 1 .08 -1039.7 -3374.86)" xlink:href="#a"/><linearGradient id="u" x1="455.62" x2="458.64" y1="446.41" y2="366.89" gradientTransform="matrix(-1 0 0 1 708.44 0)" xlink:href="#c"/><linearGradient id="v" x1="238.98" x2="242.02" y1="447.41" y2="367.35" xlink:href="#c"/><linearGradient id="w" x1="238.64" x2="239.15" y1="607.89" y2="619.81" xlink:href="#e"/></defs><g data-name="Layer 1"><g data-name="3"><g opacity=".5"><path fill="#81c565" d="M690.86 613.78c15.93 13.49-609.07 13.49-593.13 0-15.94-13.5 609.06-13.5 593.13 0Z" opacity=".5"/><g opacity=".3"><path fill="#81c565" d="M667.05 342.59c-6.08 355.35-539.39 355.29-545.42 0 6.09-355.34 539.37-355.29 545.42 0Z" opacity=".8"/><path fill="#81c565" d="M340.75 454.1c-3.57 208.2-316 208.16-319.57 0 3.56-208.21 316.03-208.17 319.57 0Zm107.08 0c3.57 208.2 316 208.16 319.57 0-3.56-208.21-316.03-208.17-319.57 0Z" opacity=".6"/><path fill="#81c565" d="M548.46 292.83c2.44 142.64 216.52 142.62 218.94 0-2.4-142.65-216.52-142.63-218.94 0Zm-308.34 0c-2.44 142.64-216.52 142.62-218.94 0 2.44-142.65 216.52-142.63 218.94 0Z" opacity=".5"/></g></g><g opacity=".9"><g opacity=".8"><path fill="#5bbc64" d="M618.94 534.17c3.23-22.23 20.78-38.51 42-44.18 39.69-11.48 43.39-40.86 48.68-26.17s-5.82 30.55 3.71 42 1.95 33-13.32 37.71-69.91 40.64-69.91 69.37H589c-2.1 0-2.1-15.71-2-16.88.78-24.95 26-38.82 31.94-61.85Z"/><path fill="#fff" d="M648.67 552.81c-.87-14.14 5.74-28.3 16.37-37.58 6.06-5.32 12.82-9.19 18.69-14.35 4.62-3.8 9.83-7.44 12.45-13-2.11 6.85-8.18 11.34-13.18 16.12-17.19 13-32.84 25.49-34.33 48.81Z" opacity=".8"/></g><path fill="#3db552" d="M765 559.87c-5.7 17.74-21.26 27.61-39 31.5-50.35 11-73.93 18-81.76 20.53-3.65 2-42.61.66-47.37 1 13.64-31.54 11.73-85.89 81.14-81.24 46.57 8.72 64.21-25.14 75.5-34.79 2.39-2 11.5-10.72 12.92-3.81-4.72 22.31 5.04 44.57-1.43 66.81Z"/><path fill="#3db552" d="M747.73 532c-9 33.88-50.89 34.49-79.52 37.13-17.58 2.08-35.65 12.54-40.07 30.71 2.31-19.21 21-31.42 39-34 28.35-3.65 68.31-1.94 80.59-33.84Z"/><path fill="#fff" d="M747.73 532c-9 33.88-50.89 34.49-79.52 37.13-17.58 2.08-35.65 12.54-40.07 30.71 2.31-19.21 21-31.42 39-34 28.35-3.65 68.31-1.94 80.59-33.84Z" opacity=".8"/><g opacity=".8"><path fill="#5bbc64" d="M169.63 534.17c-3.22-22.23-20.77-38.51-42-44.18-39.69-11.48-43.39-40.86-48.63-26.17s5.82 30.55-3.71 42-1.95 33 13.32 37.71 69.91 40.64 69.91 69.37h41.14c2.1 0 2.1-15.71 2-16.88-.86-24.95-26.12-38.82-32.03-61.85Z"/><path fill="#fff" d="M139.91 552.81c.87-14.14-5.74-28.3-16.37-37.58-6.06-5.32-12.82-9.19-18.69-14.35-4.62-3.8-9.83-7.44-12.45-13 2.11 6.84 8.23 11.33 13.19 16.09 17.18 13.03 32.83 25.52 34.32 48.84Z" opacity=".8"/></g><path fill="#3db552" d="M23.57 559.87c5.71 17.74 21.27 27.61 39 31.5 50.35 11 73.93 18 81.76 20.53 3.65 2 42.61.66 47.37 1-13.7-31.51-11.76-85.9-81.17-81.21C64 540.41 46.32 506.55 35 496.9c-2.39-2-11.5-10.72-12.93-3.81 4.8 22.28-4.96 44.54 1.5 66.78Z"/><path fill="#3db552" d="M40.85 532c9 33.88 50.89 34.49 79.52 37.13 17.58 2.08 35.65 12.54 40.07 30.71-2.31-19.21-21-31.42-39-34-28.35-3.65-68.31-1.94-80.59-33.84Z"/><path fill="#fff" d="M40.85 532c9 33.88 50.89 34.49 79.52 37.13 17.58 2.08 35.65 12.54 40.07 30.71-2.31-19.21-21-31.42-39-34-28.35-3.65-68.31-1.94-80.59-33.84Z" opacity=".8"/></g><g opacity=".5"><path d="M99.91 433.87c-3-.88.38-3.4 1.57-5.1C114 414 130.91 394.8 144.6 379c-5 5-10.48 10.59-15.72 15.91-36.08 36.54-36.4 36.54-37.36 36.54-1.59-.1-1.4-1.81-.47-2.64 15.77-18.56 37.52-42.31 54.15-61.45-14.61 14.71-34.78 35.44-48.65 49.32-14.19 13.51-12.48 13.47-15.15 12.71-.94-.94-.26-1.75 2.61-5.17 15.83-18.43 38.48-43 55.59-62.37-13.92 13.7-68.13 69.56-63.91 63.41a1.24 1.24 0 0 1-.86-.35c-.94-.93-.36-1.6 2.82-5.35 15.54-18 37.16-41.45 54-60.4-5.53 5.58-11.66 11.8-17.52 17.74-40.94 41.53-43.26 43.52-44.42 43.52-2.4-.85-1.46-1.59 2-5.78 15.88-18.34 38-42.41 55.23-61.72-8.19 8.19-18 18-26.75 26.89-35.1 35.4-35.19 35.4-36.08 35.4a1.16 1.16 0 0 1-.85-.35c-1.24-2.3 2.56-4.59 4.25-7.25 13-15.2 30.17-34.13 45.05-50.73-11.79 11.45-46.21 48-53 52a1.31 1.31 0 0 1-.88-.36c-1.13-1.87 1.3-3 2.45-4.8 16-18.36 38.8-43.26 55.76-62.42-6.69 6.73-14.61 14.79-22.09 22.39-36.44 37.08-38.39 38.74-39.52 38.74-2.37-.8-1.42-1.64 1.78-5.53 14.4-16.81 34.33-38.65 50.06-56.45a5631.1 5631.1 0 0 0-19.87 20c-35 35.27-35.17 35.27-36 35.27-2-.59-1.59-1.37.7-4 14.92-17.24 35.35-40 50.63-57.67-7.53 7.15-53.75 54.9-52 51.66a1.17 1.17 0 0 1-.85-.35c-1.16-1.81 1.42-3.13 2.56-5 10.81-13.16 25.21-29.8 37.41-44.12-4 4-8.15 8.28-12 12.24-28.12 27.88-26 27.83-29 27.06-1.47-2 4.52-7 6.69-10.37 6.62-8.2 16.37-20 23.8-29.15-38.26 40-33.4 30.65-14.18 3.29-3.71 3.69-3.79 3.69-4.3 3.69a1.18 1.18 0 0 1-.65-2.17c.57-.5 3.7-3.66 6-6 5.55-5.6 5.55-5.6 6.13-5.6 3.11 1-.88 4.26-2 6.58-3.51 5.24-8.84 13-12.73 18.77 5.52-5.19 36.67-37.88 34.85-34.49 2 .6 1.5 1.45-.69 4.22C82.71 335.65 70.71 350 61 362.06c4.59-4.63 9.94-10.07 15-15.22C104.26 318 104.55 318 105.5 318c1.53.09 1.43 1.76.51 2.57-11.42 13.83-26.45 31-39 45.84 85.84-88.05 40.48-32.84 5 5.93 4.39-4.4 9-9.08 13.51-13.58 38-38.22 38.17-38.22 39.05-38.22 2.36.82 1.38 1.66-1.86 5.61C108 343.36 87.48 365.85 71.47 384c6.59-6.64 14.32-14.5 21.62-21.93 36.37-37 38.32-38.65 39.44-38.65 2.43.92 1.58 1.46-2.41 6.34C114.7 347.69 93.42 370.9 76.4 390c9.37-9.07 66.45-67.82 62.3-62a1.22 1.22 0 0 1 .85.34c1.1 1.65-.91 2.48-1.84 4-17 19.32-39.67 44.08-57.39 64.19 5.56-5.58 11.94-12 18.24-18.35 46-45.61 43.9-45.56 46.94-44.79.93.93.34 1.63-3 5.51-16.08 18.58-38.69 43.1-56.11 62.7 8-8 17.52-17.67 26.09-26.38 36.25-36.76 36.52-36.76 37.52-36.76a1.19 1.19 0 0 1 .86.35c1 .94.28 1.73-2.95 5.55-15.26 17.67-36.16 40.38-53 59.2 5.18-5.22 10.84-10.94 16.25-16.41 40.16-40.63 42.26-42.44 43.33-42.44 2.43.83 1.38 1.76-2.06 6-15.64 18.31-37.64 42.18-54.68 61.4 15-14.78 64.67-66.58 61.74-61.36a1.22 1.22 0 0 1 .87.35c.92.91.48 1.55-3.36 6.16-13.44 15.89-31.16 35.5-46.45 52.8 17.58-17.47 52.52-53.91 51.06-50.51 1.65.2 1.42 1.72.33 2.8-13 15.51-29.72 34.38-44 51l9.6-9.72c34.32-35.06 37.6-38 35.77-31.84-11.33 14-26.47 31.5-38.88 46.37 6.78-6.53 42-43.09 39.47-39.12a1.17 1.17 0 0 1 .85.35c1.09 1.6-.93 2.63-1.82 4.2-7.4 9.49-17 21.35-25.47 31.87 23.41-23.66 25.53-26.16 24.86-21.23-2.11 1.5-14.12 13.8-23.61 23.33-14 14.11-14 14.11-14.65 14.11-1.84-.56-1.62-1.23.43-3.75 7.93-10.07 18.46-23 27.12-33.86l-6.61 6.61c-32.28 32.72-32.64 32.72-33.59 32.73a1.3 1.3 0 0 1-.87-.35c-.93-.93-.93-.93 8.41-12.12 8.46-10.13 20.83-24.72 30.17-35.83-6.13 6.16-13.38 13.51-19.91 20.13-28.25 28.63-28.41 28.63-29.3 28.64Zm60.7-39.68a1.14 1.14 0 0 0 .49.29 1.23 1.23 0 0 1-.49-.29ZM60.7 340.67a1.17 1.17 0 0 1 .84.34 1.19 1.19 0 0 0-1.38-.21 1.16 1.16 0 0 1 .54-.13Z" style="mix-blend-mode:multiply" fill="#81c565" opacity=".8"/><path d="M389.37 195.27c-2.19-.65.28-2.5 1.15-3.74 9.19-10.83 21.6-24.93 31.64-36.55l-11.53 11.67c-26.48 26.82-26.71 26.82-27.42 26.82-1.16-.08-1-1.33-.34-1.94 11.57-13.62 27.53-31.05 39.74-45.09-11.93 11.45-35.87 37.8-46.18 45.78-1.75-.59-1-1.29 1.28-4.06 11.61-13.52 28.23-31.54 40.79-45.76-10.22 10-50 51-46.9 46.52a.89.89 0 0 1-.64-.25c-1.16-1.8 5.62-7.41 8.1-10.82 9.42-10.6 23.5-26.09 33.64-37.43-76.47 78.48-43.67 38.94-3.44-4.58-6 6-13.18 13.24-19.63 19.73-25.81 26-25.89 26-26.53 26a.81.81 0 0 1-.62-.25c-.86-1.8 1.83-3.3 3.11-5.32 9.53-11.16 22.15-25.05 33.06-37.23-8.65 8.4-33.91 35.21-38.9 38.16-2.21-.67.25-2.54 1.16-3.79 11.71-13.47 28.47-31.74 40.91-45.8-66.32 68.48-53.71 50.33-7.17-.62-69.15 70.43-39.06 35.28-3.35-4.72-5.53 5.25-39.44 40.29-38.18 37.91a.88.88 0 0 1-.63-.26c-.84-1.32 1.05-2.29 1.89-3.68 8-9.63 18.54-21.84 27.5-32.36-42.09 43.79-35.85 33.28-7.72-.15-28 29.32-24.47 22.4-10.41 2.41-2.71 2.72-2.77 2.72-3.14 2.73a.87.87 0 0 1-.48-1.6c.89-.62 8.87-9.33 8.9-8.49 3.72-.12-9.8 16-10.81 18.6 4-3.81 26.91-27.8 25.57-25.31 1.48.44 1.11 1.06-.51 3.1-6.53 8.28-15.34 18.83-22.5 27.66 3.37-3.4 7.29-7.39 11-11.17 20.77-21.15 21-21.15 21.68-21.15 1.13.07 1 1.29.37 1.88-8.38 10.15-19.4 22.78-28.6 33.64 62.65-64.29 29.71-24.05 3.68 4.35 71.08-72.48 29.94-24.61-.42 8.54 4.84-4.88 10.51-10.64 15.87-16.09 26.69-27.16 28.11-28.36 28.94-28.37a.94.94 0 0 1 .64.26c.68.67.35 1.12-2.41 4.4-11.32 13.17-26.93 30.2-39.42 44.21 6.87-6.66 48.76-49.77 45.71-45.49a.89.89 0 0 1 .63.25c.94 1.74-3.64 4.92-5.35 7.42-11.1 12.47-26.6 29.55-38.1 42.59 78.63-80.23 45.79-41.13 4.46 3.76 5.84-5.86 12.85-13 19.15-19.36 26.59-27 26.78-27 27.5-27a1 1 0 0 1 .63.26c1.09 2-5.85 7.69-8.48 11.29-9.1 10.26-22.58 25.09-32.56 36.23 76-77.9 39.28-34.06 2.09 6.26 58.6-60.79 60.81-58.31 9.39-1.5 59.15-60.85 40.26-36.78 5.41 2.38 55.53-57.15 31.23-27.1 4.76 3.53 5-4.8 30.78-31.61 29-28.7 2.9.72-3.26 5.89-4.57 8.23-4.13 5.18-10.07 12.55-14.84 18.49 17.76-17.39 16.17-17.35 18.24-16.8 1 1.66-10.9 11-17.32 18.34-10.26 10.36-10.26 10.36-10.75 10.36a.87.87 0 0 1-.62-.26c-.57-.56-.34-.86.93-2.49 5.82-7.4 13.55-16.89 19.9-24.85-17.68 17.74-29.34 30.09-29.47 28.9a.88.88 0 0 1-.64-.26c-.68-.68-.68-.68 6.17-8.89 6.21-7.43 15.29-18.14 22.14-26.29-4.5 4.52-9.82 9.91-14.61 14.77-20.73 21-20.85 21-21.5 21Zm44.54-29.12a.89.89 0 0 0 .36.21 1 1 0 0 1-.36-.21Zm-73.31-39.27a.85.85 0 0 1 .61.25.87.87 0 0 0-1-.16.93.93 0 0 1 .39-.09Z" style="mix-blend-mode:multiply" fill="#81c565" opacity=".8"/><path d="M706.6 408.74c-1.45-.42.18-1.65.77-2.48 6.1-7.19 14.35-16.57 21-24.29-47.32 48.4-20 16.71.29-5.68-7.93 7.61-23.84 25.12-30.69 30.43-1.16-.39-.67-.86.85-2.7 7.71-9 18.76-21 27.11-30.41-46.6 47.83-36 33.64-3.85-1.32-50.39 51.75-29 25.78-2.29-3-4 4-8.76 8.79-13.05 13.11-17.15 17.28-17.21 17.28-17.63 17.28-.93-.15-.63-1 0-1.71 6.87-8.35 15.68-17.84 23.6-26.73-5.75 5.58-22.54 23.4-25.85 25.36-1.48-.44.16-1.69.76-2.52 7.79-9 18.93-21.1 27.19-30.44-43.72 45.2-35.53 33.22-4.76-.42-45.71 46.58-25.94 23.42-2.23-3.12-3.67 3.49-26.21 26.77-25.37 25.19-1.48-.44.24-1.74.83-2.62 5.31-6.4 12.33-14.52 18.28-21.5-27.8 29-23.74 22-5.13-.11-18.54 19.45-16.23 14.81-6.92 1.6-2.18 2-1.56 2-2.5 1.65-.55-1.16 1.74-2.11 3-3.81 2.71-2.72 2.71-2.72 3-2.72 2.27.41-6.38 10.36-7.19 12.36 28.65-29.64 16.9-14.53 1.71 3.62 34.62-35.8 22.93-20.59 3 2.13 41.39-42.49 19.75-16 2.45 2.89 46.76-47.71 19.93-16.35-.28 5.67 48.21-49.73 30.49-27.47 2.4 2.94 4.57-4.43 32.41-33.08 30.39-30.24 1.33.34.06 1.43-.49 2.09-8.3 9.42-19.34 21.5-28 31.31 51.87-53 30.38-27.24 3 2.5 45.62-47 36.45-34.11 4.15.95 50.09-51.36 26.08-22.56 1.38 4.17 38.77-40.26 40.24-38.53 6.25-1 39-40.13 26.67-24.31 3.59 1.58 36.67-37.76 20.75-18 3.17 2.35 3.3-3.19 20.46-21 19.24-19.08 2.74.19-11.46 15.2-12.89 17.76 11.8-11.56 10.75-11.53 12.12-11.16.35 1.45-7 7.1-11.51 12.19-6.82 6.88-6.82 6.88-7.14 6.88-2.8-.06 12.14-15.92 13.43-18.34-35.28 36.28-16.13 12.85-1.2-4.35-3 3-6.53 6.59-9.71 9.82-13.78 14-13.86 14-14.29 14Zm29.6-19.35a.6.6 0 0 0 .24.14.54.54 0 0 1-.24-.14Zm-48.72-26.1a.6.6 0 0 1 .41.17.58.58 0 0 0-.67-.11.58.58 0 0 1 .26-.06Z" style="mix-blend-mode:multiply" fill="#81c565" opacity=".8"/></g><path d="M40.76 303.59a783 783 0 0 1 131.32-61.23 783.42 783.42 0 0 1-131.32 61.23Zm190.51-137.44a1172.86 1172.86 0 0 1 131.32-61.23 1174.64 1174.64 0 0 1-131.32 61.23Zm462.31 262.96a707.89 707.89 0 0 1 85.24-39.74 704.93 704.93 0 0 1-85.24 39.74Z" style="mix-blend-mode:multiply" fill="#81c565" opacity=".5"/><rect width="276.34" height="439.68" x="261.83" y="173.25" fill="#10572c" rx="12.05"/><rect width="245.09" height="402.09" x="277.45" y="192.04" fill="#eaf5eb" rx="12.05"/><path fill="#77c376" d="M471.89 234.75v116.71a13.27 13.27 0 0 1-13.33 13.22H340.83a13.28 13.28 0 0 1-13.33-13.22V234.75a13.28 13.28 0 0 1 13.33-13.22h117.73a13.28 13.28 0 0 1 13.33 13.22Z"/><path fill="#eaf5eb" d="M425.33 275.39c-.57 33.4-50.7 33.4-51.27 0 .58-33.39 50.7-33.39 51.27 0Z"/><path fill="#eaf5eb" d="M447.53 355.63a3.78 3.78 0 0 1-3.82 3.77h-88a3.78 3.78 0 0 1-3.81-3.77c1.03-62.33 94.57-62.31 95.63 0Z"/><path fill="#77c376" d="M304.51 391.67h118.46v14.3H304.51zm0 32.4h63.58v14.3h-63.58zm0 32.4h107.18v14.3H304.51zm0 32.41h85.23v14.3h-85.23z" opacity=".8"/><g opacity=".8"><path fill="#77c376" d="M474.14 391.67h20.74v14.3h-20.74z" transform="rotate(180 484.51 398.815)"/><path fill="#77c376" d="M474.14 424.07h20.74v14.3h-20.74z" transform="rotate(180 484.51 431.22)"/></g><path fill="#77c376" d="M420.92 564.65h-42.45c-22.46-.38-22.48-33.81 0-34.19h42.45c22.46.38 22.48 33.81 0 34.19Z"/><path fill="#eaf5eb" d="M391.44 538.81c-4.8 9.2 9.35 22.56 18.31 17.47 3-2.21-.94-5.39-3-6.68-1.34-.48-2.37 1.5-2.83 2.85-1.38 1.27-9.66-6.61-8.45-8.06 1.34-.5 3.31-1.59 2.77-2.91-1.33-1.95-4.7-5.73-6.8-2.67Z"/><path fill="url(#e)" d="M285.57 604.41s7.52 5.46 15.07 3.23c-.2 7.44-25 8.59-31.28 5.15 1.86-10.73 7.11-11.79 16.21-8.38Z"/><path fill="url(#a)" d="M285 598.45v5.79c0 .84-7.59 1.52-11-.82l1.22-4.64 7.53-2.67Z"/><path fill="url(#c)" d="M279.75 373.44s12.07 22.41 16.32 37.37c.63 12-8.45 9.78-10.77 9.28s-5.55-46.65-5.55-46.65Z"/><path fill="url(#d)" d="M242.87 318.12c16.57-9.05 33.25-1.08 36.65 17.27.74 4 5.13 26.88-.81 28.21-5.13 1.14-6.65-5.73-34.2 4.07-12.43 4.43-19.65-8.09-16-19.29 5.63-10.31 3.07-23.78 14.36-30.26Z"/><path fill="url(#f)" d="M269 350.61s-1.78 16.33 3.37 18.37c0 0-8 8.55-16.22-4 0 0 1.64-8.59 0-15.32Z"/><path fill="url(#g)" d="M272.58 331.66c-1.92 8.9 8.17 18.92-2.74 29-3.45.11-18.76.81-21.29-11.75-.94-2.09-4.39-2.57-3.68-6.42s2.82-1.85 2.82-1.85-.18-2.83-.14-5.24 25.03-3.74 25.03-3.74Z"/><path fill="url(#b)" d="M271.24 528c-4.23 22.56 3.2 70.93 4.17 71 5.88 2.86 9.58-.33 9.58-.33 1.41-21.14 10.51-133.4-1-156.55l-14.4-4.12a48.7 48.7 0 0 0-9.91 20c-3.14 16.23 9.03 56.77 11.56 70Z"/><path fill="url(#h)" d="M235.5 607.78a9.11 9.11 0 0 0 9.63 1.83 79.17 79.17 0 0 1 1.53-7.78c-2.06.7-5.65 1.14-10.44-1.24-.56 4.34-.86 7.16-.72 7.19Z"/><path d="M258.94 465.48c.32 13 10 52.95 12.3 62.47-2.24-9.91-4.27-50.1 3-68.48s10.72-11.35 10.72-11.35l.46-.7a50.54 50.54 0 0 0-1.43-5.31l-14.4-4.11c-1 0-9.31 19-9.91 20a32.47 32.47 0 0 0-.74 7.48Z" style="mix-blend-mode:multiply" fill="url(#i)" opacity=".5"/><path fill="url(#j)" d="M245.91 442.83s-13.83 17.89-10.45 58.09 1.87 90.11.76 99.67c2.27 7.19 10.44 1.24 10.44 1.24 11.14-30.89 17.52-114.62 25.77-156.27 6.43-26.09-26.52-2.73-26.52-2.73Z"/><path fill="url(#k)" d="M289.37 395.87c0 5.63-3.61 10-4.26 15.44-1.27 9.77-2.52 21.72-1.16 30.8.24 1.44-23 7.39-38 .72a292.23 292.23 0 0 1-8.25-44c-.11-10.21-3.34-23.43 4.66-27.77 3.92-2.55 10.05-6.09 13.84-6 0 0 3.21 5 10.86 5.29 4.51 0 2.76-4.85 2.57-5.3 2.53 4.35 8.78 4.81 11.73 8.62 2.26 7.51 7.26 14.33 8.01 22.2Z"/><path fill="url(#l)" d="M281.35 373.44c.06.17 2.08 5.67 3.89 10.27-1.24-4.24-2.66-8.5-3.89-10.27Z"/><path fill="url(#m)" d="m279.63 403.55-.74.19a5.2 5.2 0 0 0 .74-.19Z"/><path fill="url(#n)" d="M272.58 331.66S268.79 347 247 341s11.55-12.82 11.55-12.82Z"/><path d="M284 442.11c.24 1.44-23 7.39-38 .72-3.1-13-7-27.63-7.59-41.12 1.23.89 4.11.29 6-3.25 6.84-20 6.6-10.44 5.82 4.37-.17 2.43-.35 4.66-.51 6.29-.57 6.17 17.37 2.42 17.37 2.42L284 421.66c0 .29 0 .59-.08.89-12.33.24-30.58 5.29-39.41 8.73 3.69 11.6 10.85 14.92 39.49 10.83Z" style="mix-blend-mode:multiply" fill="url(#o)"/><path fill="url(#p)" d="M264.68 422.1a1.21 1.21 0 0 0 1 .4l20.55-1.61a1.2 1.2 0 0 0 1.09-.92l6.51-28.1a1.2 1.2 0 0 0-1.28-1.46c-.14 0-.9.11-1.08.08L270 392.15a1.21 1.21 0 0 0-1.1 1l-4.34 27.09-.11.7a1.27 1.27 0 0 0 .23 1.16Z"/><path d="m264.64 421.47 3-.23a.72.72 0 0 1-.49-1.16c.14-.18 7.45-9.08 7.35-9 0-.15 1.37-5.63 1.37-5.63s1.8 3.93 1.13 6.35 7.33-7.49 7.33-7.49-.31 6-3.31 8.5l5.79-4.52a12 12 0 0 1-4.56 5.65l5.12-2.44a12.61 12.61 0 0 1-4.24 4.19l2.77-.44c-.37 2.21-6.86 5.08-10.73 5.37l10.05-.79c1.91.14 7-27.93 7.61-29.44 3.19-1-6 29-5.49 29.55.9 1.7-21.21 2.12-21.64 2.53a1.2 1.2 0 0 1-1.29-1 1 1 0 0 0 .23 0Z" style="mix-blend-mode:multiply" fill="url(#q)" opacity=".5"/><path fill="url(#r)" d="M275.07 419.43H275c-1.23.4-2.46.78-3.7 1.16a9.28 9.28 0 0 0-2.87-7.89c1.29-.2 2.38-.35 3.2-.46 1.45-1.25 1.54-3.1 2.56-4.65 1.05-1.27 0-2.54.24-3s.48-.39 1.19.48c.94.32-.49 7.59 2.49 5.67l2.62-2.38s.95-1.91 1.76-3.65 2.39-2.57 1.81-.43a24.44 24.44 0 0 1-3.4 7.05c1.57-.51 1.77-1.14 4-3.29 6.27-4.15-2.39 5.49-3.73 5.65 1.5-.27 1.86-.92 4.33-2.68 6-3-1.36 3.72-3.23 4.45.89-.44 5.9-2.76 3.56-.24-1.6 1.32-5.53 3.57-6.79 3.6s-2.82.57-4.08.57Z"/><path fill="url(#s)" d="M275.07 419.43h-.06.06Z"/><path fill="url(#t)" d="M275.07 419.43h-.06.06Z"/><path fill="url(#u)" d="M232.18 418.47c.12 7.88 1.78 11 9.38 9.77 10.21-1.93 19.89-4.77 29.75-7.63a9.28 9.28 0 0 0-2.87-7.89c-11 1.61-25.84 4.12-36.26 5.75Z"/><path fill="url(#v)" d="M248.9 397.18c-1.35 8.71-5.63 17.06-5.53 26l-9.78 3.1c-3-9.42-1.86-44.74 4.87-52 12.88-13.37 11.86 16.32 10.44 22.9Z"/><path fill="url(#w)" d="M245.13 609.61a24.33 24.33 0 0 1 2.37 5.77c.29 1.14-.69 1.7-1.65 1.93-8.78 2.25-23.29 1-10.35-9.53 0 0 3.29 2.53 9.63 1.83Z"/><g opacity=".9"><path fill="#5cba47" d="M606.78 274.76h-69a13 13 0 0 0-13 12.93v64.11l-12.07 23.1a4.51 4.51 0 0 0 6.76 5.64l15.65-11.78a13.29 13.29 0 0 0 2.7.28h69a13 13 0 0 0 13.05-12.93v-68.42a13 13 0 0 0-13.09-12.93Z"/><path fill="#fff" d="M579.91 322.75c0 11.12-17.1 11.12-17.15 0s17.1-11.11 17.15 0Zm27.71 0c0 11.12-17.1 11.12-17.15 0s17.1-11.11 17.15 0Zm-72.57 0c.05 11.12 17.1 11.12 17.15 0s-17.11-11.11-17.15 0Z" opacity=".9"/></g><g opacity=".9"><path fill="#5cba47" d="M544.23 558h-52.48a9.87 9.87 0 0 1-9.92-9.83V499.4l-9.17-17.57a3.43 3.43 0 0 1 5.14-4.29l11.9 9a9.9 9.9 0 0 1 2.05-.21h52.48a9.87 9.87 0 0 1 9.91 9.83v52a9.87 9.87 0 0 1-9.91 9.84Z"/><path fill="#fff" d="M544.14 510.21h-52.89c-1.62.12-.59-4.26-.87-5a.87.87 0 0 1 .87-.87h52.89c1.62-.12.59 4.26.86 5a.86.86 0 0 1-.86.87Zm0 10.86h-52.89c-1.62.12-.59-4.26-.87-5a.87.87 0 0 1 .87-.87h52.89c1.62-.12.59 4.26.86 5a.86.86 0 0 1-.86.87Zm0 10.86h-52.89c-1.62.12-.59-4.26-.87-5a.87.87 0 0 1 .87-.87h52.89c1.62-.12.59 4.26.86 5a.86.86 0 0 1-.86.87Zm0 10.86h-52.89c-1.62.12-.59-4.26-.87-5a.87.87 0 0 1 .87-.87h52.89c1.62-.12.59 4.26.86 5a.86.86 0 0 1-.86.87Z" opacity=".9"/></g></g></g></svg>